<?xml version="1.0" standalone="no"?>
<!DOCTYPE svg PUBLIC "-//W3C//DTD SVG 20010904//EN"
 "http://www.w3.org/TR/2001/REC-SVG-20010904/DTD/svg10.dtd">
<svg version="1.0" xmlns="http://www.w3.org/2000/svg"
 width="700.000000pt" height="700.000000pt" viewBox="0 0 700.000000 700.000000"
 preserveAspectRatio="xMidYMid meet">
<metadata>
Created by potrace 1.11, written by Peter Selinger 2001-2013
</metadata>
<g transform="translate(0.000000,700.000000) scale(0.100000,-0.100000)"
fill="#000000" stroke="none">
<path d="M334 6221 c-152 -43 -266 -155 -315 -309 -17 -54 -18 -162 -18 -2402
0 -1572 3 -2360 10 -2390 15 -64 63 -160 102 -200 79 -83 123 -110 223 -140
59 -17 208 -18 3160 -18 2132 0 3113 3 3144 10 121 28 238 115 298 220 66 116
62 -68 61 2513 0 2011 -2 2348 -15 2394 -45 168 -192 304 -359 331 -38 6
-1182 10 -3145 9 -2899 -1 -3089 -2 -3146 -18z m3209 -1095 c34 -19 391 -225
524 -302 18 -11 94 -55 170 -98 399 -230 620 -357 633 -366 8 -6 25 -14 38
-20 l22 -10 0 -827 0 -828 -33 -19 c-17 -10 -45 -26 -62 -36 -16 -9 -91 -52
-165 -95 -74 -43 -238 -137 -365 -210 -126 -73 -255 -146 -285 -164 -30 -17
-62 -36 -70 -41 -8 -5 -53 -31 -100 -58 -47 -27 -145 -83 -218 -125 l-133 -77
-127 74 c-70 41 -199 115 -287 165 -88 51 -167 96 -175 101 -32 19 -197 114
-240 138 -25 14 -69 40 -98 59 -29 18 -55 33 -58 33 -4 0 -32 15 -63 34 -31
19 -74 44 -96 56 -22 13 -53 31 -70 41 -16 10 -39 23 -50 29 -11 6 -42 24 -70
41 -27 16 -60 35 -72 41 l-23 11 0 827 0 828 108 61 c59 33 118 67 132 75 35
21 199 115 235 136 17 9 107 61 200 115 94 54 256 148 360 208 105 60 204 118
220 127 17 10 62 36 100 59 39 22 71 41 73 41 2 0 22 -11 45 -24z"/>
</g>
</svg>
